<svg xmlns="http://www.w3.org/2000/svg" viewBox="0 0 1170.73 160.86">
    <defs>
        <style>.cls-1{fill:#ec625f;}</style>
        <!-- <style>.cls-1{fill:$color-primary;}</style> -->

    </defs>
    <title>JhonInalienDevLong</title>
    <g id="Layer_2" data-name="Layer 2">
        <g id="Layer_1-2" data-name="Layer 1">
            <path class="cls-1" d="M165,103.45,148.66,31.86,82.5,0,16.34,31.86,0,103.45l45.78,57.41s13.89-3.24,21.49-12c4.88-5.66,5.79-15.9,5.79-15.9L74,61.47H39.11l-.93,14.39,1.39,1.53L52.28,77,53,114.54s1.71,19.75-2,24.68a19.92,19.92,0,0,1-4.71,4.5L12,100.81,26,39.67,82.5,12.47,139,39.67l14,61.14-34.69,43.5-1-16.49,2.41-52.08H97.56l2.18,52.08-2.41,33h21.92Z" />
            <path class="cls-1" d="M237.92,92l.42,19.74q0,16-8,26.35T202.64,158l-6.51-9.45v-2.1q14.49-7.77,20.58-15.33T222.8,112V93.72L222,15.6l-25.83.21-1.68-1.47L195.5,2h43.26Z" />
            <path class="cls-1" d="M352.58,103.8l.42,32.76H337.46l.63-31.5-.21-14.28L281,91l-.21,12.81.42,32.76H265.64l.63-31.5L265.64,32h15.75L281,76.92l28.35.21,28.56-.21L337.46,32h15.75Z" />
            <path class="cls-1" d="M455.59,44.16q12.28,13.44,12.28,38,0,26.67-13.12,41.27T417.26,138q-22.68,0-35.07-13.76T369.8,85.11q0-26,13.23-40.21t37.38-14.17Q443.3,30.72,455.59,44.16ZM394.27,53.4q-8.09,9.45-8.08,29.82,0,21.84,8,31.71t24.36,9.87q16.8,0,25-9.66T451.7,84.9q0-21.21-8.08-31.08T418.94,44Q402.35,44,394.27,53.4Z" />
            <path class="cls-1" d="M571.4,105.27l.21,31.29h-16.8l-55-79.8h-1l-.21,44.94.42,34.86H484.67l.63-30.87L484.88,32h16.59l55,79.8H558l-.42-79.17,14.49-1Z" />
            <path class="cls-1" d="M627,93.09l1.26,43.47H594.08L596,96.45,594.08,1.11h34.86Z" />
            <path class="cls-1" d="M745.07,101.91l1.26,34.65H711.89L675.56,77.34h-1.68l-.21,21,1,38.22H646.16l1.47-31.29-1.47-75.39h34.23l36.33,59h2.1l-1-58,29-1.68Z" />
            <path class="cls-1" d="M857,136.56H825.07l-2.94-17-.42-1.68-19.53-.42-16.8.42-3.15,18.69H751.36L786.85,29.88h37.8ZM815.62,94.35l-9.45-36.12h-1.89L792.73,94.35l11.34.21Z" />
            <path class="cls-1" d="M929.86,112.83,928,136.56H862.66l1.47-31.29-1.47-75.39h32.13l-1.89,72.24.42,8.61h34.86Z" />
            <path class="cls-1" d="M964.93,102.12l1.26,34.44h-31.5l1.47-31.29-1.47-75.39h32.13Z" />
            <path class="cls-1" d="M1061.11,111.15l1.89,2.1-2.1,23.31H983.83l1.47-31.29-1.47-75.39h78.12l1.89,2.31-2.1,23.1-27.72-1h-18.69l-.42,16.38H1033l18.27-.63,1.68,2.31L1051,95.61,1030.87,95l-16.59.21-.21,6.93.42,10.08h17.64Z" />
            <path class="cls-1" d="M1169,101.91l1.26,34.65h-34.44l-36.33-59.22h-1.68l-.21,21,1,38.22h-28.56l1.47-31.29-1.47-75.39h34.23l36.33,59h2.1l-1-58,29-1.68Z" />
        </g>
    </g>
</svg>