<svg xmlns="http://www.w3.org/2000/svg" viewBox="0 0 165 160.86"><defs><style>.cls-1{fill:#29c7ac;}</style></defs><title>JhonInalienDevIcon</title><g id="Layer_2" data-name="Layer 2"><g id="Layer_1-2" data-name="Layer 1"><path class="cls-1" d="M165,103.45,148.66,31.86,82.5,0,16.34,31.86,0,103.45l45.78,57.41s13.89-3.24,21.49-12c4.88-5.66,5.79-15.9,5.79-15.9L74,61.47H39.11l-.93,14.39,1.39,1.53L52.28,77,53,114.54s1.71,19.75-2,24.68a19.92,19.92,0,0,1-4.71,4.5L12,100.81,26,39.67,82.5,12.47,139,39.67l14,61.14-34.69,43.5-1-16.49,2.41-52.08H97.56l2.18,52.08-2.41,33h21.92Z"/></g></g></svg>