<svg xmlns="http://www.w3.org/2000/svg" viewBox="0 0 1329.84 653.73"><defs><style>.cls-1{fill:none;stroke:#000;stroke-miterlimit:10;stroke-width:4px;}.cls-2{font-size:176px;font-family:Copperplate-Bold, Copperplate;letter-spacing:0em;}.cls-3{font-weight:700;}.cls-4,.cls-5,.cls-6{font-family:Copperplate, Copperplate;}.cls-5{letter-spacing:0em;}.cls-6{font-size:141px;letter-spacing:0em;}</style></defs><title>Asset 6</title><g id="Layer_2" data-name="Layer 2"><g id="Layer_1-2" data-name="Layer 1"><path d="M515.41,190.19l29.8-27.32a4.26,4.26,0,0,1,5.76,0l29.8,27.32c4,3.69,9.71-2,6-6l-35.57-38.53a4.26,4.26,0,0,0-6.27,0L509.4,184.16C505.7,188.17,511.39,193.88,515.41,190.19Z"/><path d="M798.85,357,551.11,109.25a4.26,4.26,0,0,0-6,0L297.35,357a4.26,4.26,0,0,1-3,1.25H270.39a4.26,4.26,0,0,1-3-7.28l277.7-277.7a4.26,4.26,0,0,1,6,0L828.82,351a4.26,4.26,0,0,1-3,7.28H801.86A4.26,4.26,0,0,1,798.85,357Z"/><path d="M76.07,349.74l215.24-26.9a4.26,4.26,0,0,1,4.79,4.23V354a4.26,4.26,0,0,1-4.26,4.26H76.59C71.25,358.23,70.76,350.4,76.07,349.74Z"/><rect x="512.1" y="205.23" width="27" height="36" rx="4.26" ry="4.26" transform="translate(1051.19 446.47) rotate(-180)"/><path d="M278.1,349.23"/><rect x="557.1" y="205.23" width="27" height="36" rx="4.26" ry="4.26" transform="translate(1141.19 446.47) rotate(-180)"/><rect x="512.1" y="250.23" width="27" height="36" rx="4.26" ry="4.26" transform="translate(1051.19 536.47) rotate(-180)"/><rect x="557.1" y="250.23" width="27" height="36" rx="4.26" ry="4.26" transform="translate(1141.19 536.47) rotate(-180)"/><path d="M832.78,118.19,803,90.88a4.26,4.26,0,0,0-5.76,0l-29.8,27.32c-4,3.69-9.71-2-6-6L797,73.63a4.26,4.26,0,0,1,6.27,0l35.57,38.53C842.49,116.17,836.8,121.88,832.78,118.19Z"/><path d="M650.11,184.22l147-147a4.26,4.26,0,0,1,6,0L1050.85,285a4.26,4.26,0,0,0,3,1.25h23.94a4.26,4.26,0,0,0,3-7.28L803.11,1.25a4.26,4.26,0,0,0-6,0l-165,165a4.26,4.26,0,0,0,0,6l12,12A4.26,4.26,0,0,0,650.11,184.22Z"/><path d="M1272.13,277.74l-215.24-26.9a4.26,4.26,0,0,0-4.79,4.23V282a4.26,4.26,0,0,0,4.26,4.26H1271.6C1276.94,286.23,1277.43,278.4,1272.13,277.74Z"/><path d="M1070.1,277.23"/><circle class="cls-1" cx="800.1" cy="178.23" r="36"/><line class="cls-1" x1="764.1" y1="178.23" x2="836.1" y2="178.83"/><line class="cls-1" x1="800.69" y1="142.24" x2="800.1" y2="214.23"/><text class="cls-2" transform="translate(0 493.23)"><tspan class="cls-3">R</tspan><tspan class="cls-4" x="126.72" y="0">obert </tspan><tspan class="cls-3" x="686.74" y="0">W</tspan><tspan class="cls-5" x="852.53" y="0">right</tspan><tspan class="cls-6"><tspan x="391.63" y="122">REALTY</tspan></tspan></text><path d="M97.55,570l284.08-13.53a4.26,4.26,0,0,1,4.47,4.26v27.06a4.26,4.26,0,0,1-4.47,4.26L97.55,578.49C92.13,578.24,92.13,570.23,97.55,570Z"/><path d="M1025.1,322.23"/><path d="M1250.64,570,966.56,556.45a4.26,4.26,0,0,0-4.47,4.26v27.06a4.26,4.26,0,0,0,4.47,4.26l284.08-13.53C1256.06,578.24,1256.06,570.23,1250.64,570Z"/></g></g></svg>